<svg width="40" height="40" viewBox="0 0 40 40" fill="none" xmlns="http://www.w3.org/2000/svg">
<path d="M40 20L32 12V18H16V22H32V28M36 32C33.4814 35.3581 29.9701 37.8387 25.9634 39.0903C21.9566 40.3419 17.6577 40.3011 13.6754 38.9737C9.69321 37.6463 6.22957 35.0995 3.77516 31.6942C1.32075 28.2889 0 24.1976 0 20C0 15.8024 1.32075 11.7111 3.77516 8.30579C6.22957 4.90048 9.69321 2.35375 13.6754 1.02633C17.6577 -0.301079 21.9566 -0.341874 25.9634 0.909729C29.9701 2.16133 33.4814 4.64188 36 8H30.54C28.2306 5.96333 25.3826 4.63629 22.3377 4.17812C19.2929 3.71995 16.1805 4.15011 13.374 5.417C10.5675 6.68388 8.18624 8.73366 6.51586 11.3204C4.84549 13.9071 3.95699 16.9208 3.95699 20C3.95699 23.0792 4.84549 26.0929 6.51586 28.6796C8.18624 31.2663 10.5675 33.3161 13.374 34.583C16.1805 35.8499 19.2929 36.2801 22.3377 35.8219C25.3826 35.3637 28.2306 34.0367 30.54 32H36Z" fill="white"/>
</svg>
