<svg width="43" height="42" viewBox="0 0 43 42" fill="none" xmlns="http://www.w3.org/2000/svg">
<path d="M15 39.5312H10.6667C8.36812 39.5312 6.16372 38.6181 4.53841 36.9928C2.91309 35.3675 2 33.1631 2 30.8645V17.2318C1.99997 15.7416 2.38419 14.2766 3.11555 12.9782C3.84691 11.6798 4.9007 10.592 6.17517 9.81968L17.0085 3.25468C18.3629 2.43394 19.9163 2 21.5 2C23.0837 2 24.6371 2.43394 25.9915 3.25468L36.8248 9.81968C38.099 10.5918 39.1526 11.6793 39.8839 12.9773C40.6153 14.2753 40.9997 15.7398 41 17.2297V30.8645C41 33.1631 40.0869 35.3675 38.4616 36.9928C36.8363 38.6181 34.6319 39.5312 32.3333 39.5312H28M15 39.5312V30.8645C15 29.1406 15.6848 27.4873 16.9038 26.2683C18.1228 25.0493 19.7761 24.3645 21.5 24.3645V24.3645C23.2239 24.3645 24.8772 25.0493 26.0962 26.2683C27.3152 27.4873 28 29.1406 28 30.8645V39.5312M15 39.5312H28" stroke="white" stroke-width="3" stroke-linecap="round" stroke-linejoin="round"/>
</svg>
