<svg width="29" height="33" viewBox="0 0 29 33" fill="none" xmlns="http://www.w3.org/2000/svg">
<path d="M1.375 7.75H4.29167H27.625" stroke="#FF0000" stroke-width="2" stroke-linecap="round" stroke-linejoin="round"/>
<path d="M24.7083 7.74996V28.1666C24.7083 28.9402 24.401 29.682 23.8541 30.229C23.3071 30.776 22.5652 31.0833 21.7917 31.0833H7.20834C6.43479 31.0833 5.69292 30.776 5.14594 30.229C4.59896 29.682 4.29167 28.9402 4.29167 28.1666V7.74996M8.66667 7.74996V4.83329C8.66667 4.05975 8.97396 3.31788 9.52094 2.7709C10.0679 2.22392 10.8098 1.91663 11.5833 1.91663H17.4167C18.1902 1.91663 18.9321 2.22392 19.4791 2.7709C20.026 3.31788 20.3333 4.05975 20.3333 4.83329V7.74996" stroke="#FF0000" stroke-width="2" stroke-linecap="round" stroke-linejoin="round"/>
<path d="M11.5833 15.0416V23.7916" stroke="#FF0000" stroke-width="2" stroke-linecap="round" stroke-linejoin="round"/>
<path d="M17.4167 15.0416V23.7916" stroke="#FF0000" stroke-width="2" stroke-linecap="round" stroke-linejoin="round"/>
</svg>
